<svg width="96" height="96" viewBox="0 0 96 96" fill="none" xmlns="http://www.w3.org/2000/svg">
<path d="M20.2939 68.794C29.0499 81.236 44.2599 88 47.9999 88C53.3319 88 81.9999 74.268 81.9999 49.898V28.868L20.2939 68.794ZM61.9999 66L57.9999 61L61.9999 56L65.9999 61L61.9999 66Z" fill="white"/>
<path d="M82 21.719V18.999C82 17.341 80.658 15.999 79 15.999C63.132 15.999 49.614 8.465 49.478 8.389C48.56 7.871 47.436 7.869 46.518 8.391C46.384 8.465 32.932 15.999 17 15.999C15.342 15.999 14 17.341 14 18.999V49.897C14 54.941 15.24 59.521 17.236 63.627L82 21.719ZM34 25.999L38 30.999L34 35.999L30 30.999L34 25.999Z" fill="white"/>
</svg>
